<mxfile host="65bd71144e">
    <diagram id="0kis1nlSQF1iHrYs9ELn" name="Page-1">
        <mxGraphModel dx="1626" dy="575" grid="1" gridSize="10" guides="1" tooltips="1" connect="1" arrows="1" fold="1" page="1" pageScale="1" pageWidth="850" pageHeight="1100" math="0" shadow="0">
            <root>
                <mxCell id="0"/>
                <mxCell id="1" parent="0"/>
                <mxCell id="2" value="$STATEMACHINE :Â Tutorial1Sm" style="shape=swimlane;rotatable=0;align=center;verticalAlign=top;fontFamily=Lucida Console;startSize=30;fontSize=14;fontStyle=1;fontColor=#FAFAFA;fillColor=#545454;swimlaneFillColor=default;rounded=1;arcSize=15;absoluteArcSize=1;" vertex="1" parent="1">
                    <mxGeometry x="40" y="40" width="390" height="410" as="geometry"/>
                </mxCell>
                <mxCell id="3" value=" " style="fontFamily=Lucida Console;align=left;verticalAlign=top;fillColor=none;gradientColor=none;strokeColor=none;rounded=0;spacingLeft=4;resizable=0;movable=0;deletable=0;rotatable=0;autosize=1;" vertex="1" connectable="0" parent="2">
                    <mxGeometry y="30" width="30" height="20" as="geometry"/>
                </mxCell>
                <mxCell id="5" value="OFF" style="shape=swimlane;rotatable=0;align=center;verticalAlign=top;fontFamily=Lucida Console;startSize=30;fontSize=14;fontStyle=1;fontColor=#FAFAFA;fillColor=#545454;swimlaneFillColor=default;rounded=1;arcSize=15;absoluteArcSize=1;" vertex="1" parent="2">
                    <mxGeometry x="110" y="110" width="170" height="90" as="geometry"/>
                </mxCell>
                <mxCell id="6" value="enter / light_off();" style="fontFamily=Lucida Console;align=left;verticalAlign=top;fillColor=none;gradientColor=none;strokeColor=none;rounded=0;spacingLeft=4;resizable=0;movable=0;deletable=0;rotatable=0;autosize=1;" vertex="1" connectable="0" parent="5">
                    <mxGeometry y="30" width="170" height="30" as="geometry"/>
                </mxCell>
                <mxCell id="9" edge="1" parent="2" source="4" target="5">
                    <mxGeometry relative="1" as="geometry"/>
                </mxCell>
                <mxCell id="10" value="INCREASE" edge="1" parent="2" source="5" target="7">
                    <mxGeometry relative="1" as="geometry"/>
                </mxCell>
                <mxCell id="4" value="$initial_state" style="shape=ellipse;aspect=fixed;fillColor=#000000;resizable=0;rotatable=0;noLabel=1;editable=0;" vertex="1" parent="2">
                    <mxGeometry x="182.5" y="50" width="25" height="25" as="geometry"/>
                </mxCell>
                <mxCell id="11" value="DIM" style="edgeStyle=none;html=1;exitX=0.75;exitY=0;exitDx=0;exitDy=0;entryX=0.75;entryY=1;entryDx=0;entryDy=0;" edge="1" parent="2" source="7" target="5">
                    <mxGeometry relative="1" as="geometry"/>
                </mxCell>
                <mxCell id="7" value="ON1" style="shape=swimlane;rotatable=0;align=center;verticalAlign=top;fontFamily=Lucida Console;startSize=30;fontSize=14;fontStyle=1;fontColor=#FAFAFA;fillColor=#545454;swimlaneFillColor=default;rounded=1;arcSize=15;absoluteArcSize=1;" vertex="1" parent="2">
                    <mxGeometry x="110" y="270" width="170" height="90" as="geometry"/>
                </mxCell>
                <mxCell id="8" value="enter / light_on1();" style="fontFamily=Lucida Console;align=left;verticalAlign=top;fillColor=none;gradientColor=none;strokeColor=none;rounded=0;spacingLeft=4;resizable=0;movable=0;deletable=0;rotatable=0;autosize=1;" vertex="1" connectable="0" parent="7">
                    <mxGeometry y="30" width="170" height="30" as="geometry"/>
                </mxCell>
            </root>
        </mxGraphModel>
    </diagram>
</mxfile>